<svg xmlns="http://www.w3.org/2000/svg" width="1200" height="460" viewBox="0 0 1200 460" role="img" aria-label="Animated n8n workflow: webhook trigger, normalize with code, qualify with an If node, then enrich and upsert into the CRM or notify the team and send a nurture email">
<title>n8n workflow automation — example flow</title>
<defs>
  <style>
    .mono { font-family: 'JetBrains Mono', ui-monospace, 'SF Mono', Menlo, Consolas, 'DejaVu Sans Mono', monospace; }
    .sans { font-family: 'Inter', 'Segoe UI', system-ui, -apple-system, Helvetica, Arial, sans-serif; }
    .dash { animation: flow 1.2s linear infinite; }
    @keyframes flow { to { stroke-dashoffset: -30; } }
    .live { transform-box: fill-box; transform-origin: center; animation: live 1.8s ease-out infinite; }
    @keyframes live { from { opacity: .8; transform: scale(1); } to { opacity: 0; transform: scale(2.6); } }
    @media (prefers-reduced-motion: reduce) { .dash, .live { animation: none; } }
  </style>
  <clipPath id="card"><rect width="1200" height="460" rx="22"/></clipPath>
  <pattern id="grid" width="22" height="22" patternUnits="userSpaceOnUse"><circle cx="1" cy="1" r="1" fill="#fff" opacity=".07"/></pattern>
  <linearGradient id="flow" x1="0" x2="1"><stop offset="0" stop-color="#C21F3A"/><stop offset="1" stop-color="#F2A7BF"/></linearGradient>
  <filter id="glow" x="-200%" y="-200%" width="500%" height="500%"><feGaussianBlur stdDeviation="3" result="g"/><feMerge><feMergeNode in="g"/><feMergeNode in="SourceGraphic"/></feMerge></filter>
  <filter id="soft" x="-30%" y="-30%" width="160%" height="160%"><feGaussianBlur stdDeviation="6"/></filter>
</defs>
<g clip-path="url(#card)">
  <rect width="1200" height="460" fill="#0A0508"/>
  <rect width="1200" height="460" fill="url(#grid)"/>
  <rect width="1200" height="52" fill="#070406"/>
  <line x1="0" x2="1200" y1="52" y2="52" stroke="#fff" stroke-opacity=".08"/>
  <rect x="24" y="14" width="46" height="24" rx="6" fill="#EA4B71"/>
  <text x="47" y="31" text-anchor="middle" class="mono" font-size="13" font-weight="700" fill="#fff">n8n</text>
  <text x="84" y="31" class="sans" font-size="14" fill="#8E7A84">Workflows / <tspan fill="#EFE6EA" font-weight="600">Lead intake → CRM sync</tspan></text>
  <text x="1070" y="31" text-anchor="end" class="sans" font-size="13" fill="#C6C6D6">Active</text>
  <rect x="1082" y="16" width="40" height="20" rx="10" fill="#E88AAA"/><circle cx="1112" cy="26" r="7" fill="#fff"/>
  <circle cx="1150" cy="26" r="4" fill="#E88AAA"/><circle class="live" cx="1150" cy="26" r="4" fill="#E88AAA"/>
  <g transform="translate(40 30)"><path id="e_wh_code" d="M172 200 C218.0 200 218.0 200 264 200" fill="none" stroke="#3A2228" stroke-width="2"/><path d="M172 200 C218.0 200 218.0 200 264 200" fill="none" stroke="url(#flow)" stroke-width="2" stroke-dasharray="6 9" class="dash" opacity=".9"/><path d="M255 195 L264 200 L255 205" fill="none" stroke="#6A4A52" stroke-width="2" stroke-linecap="round"/><circle r="5" fill="#F2A7BF" filter="url(#glow)" opacity="0"><animateMotion dur="6.5s" repeatCount="indefinite" calcMode="linear" keyTimes="0.0000;0.0615;0.1538;1.0000" keyPoints="0;0;1;1"><mpath href="#e_wh_code"/></animateMotion><animate attributeName="opacity" dur="6.5s" repeatCount="indefinite" calcMode="discrete" keyTimes="0.0000;0.0615;0.1538" values="0;1;0"/></circle><text x="218.0" y="190.0" text-anchor="middle" class="mono" font-size="11" fill="#E88AAA" opacity="0">1 item<animate attributeName="opacity" dur="6.5s" repeatCount="indefinite" calcMode="discrete" keyTimes="0.0000;0.1538;0.9077" values="0;1;0"/></text><path id="e_code_if" d="M372 200 C418.0 200 418.0 200 464 200" fill="none" stroke="#3A2228" stroke-width="2"/><path d="M372 200 C418.0 200 418.0 200 464 200" fill="none" stroke="url(#flow)" stroke-width="2" stroke-dasharray="6 9" class="dash" opacity=".9"/><path d="M455 195 L464 200 L455 205" fill="none" stroke="#6A4A52" stroke-width="2" stroke-linecap="round"/><circle r="5" fill="#F2A7BF" filter="url(#glow)" opacity="0"><animateMotion dur="6.5s" repeatCount="indefinite" calcMode="linear" keyTimes="0.0000;0.2154;0.3077;1.0000" keyPoints="0;0;1;1"><mpath href="#e_code_if"/></animateMotion><animate attributeName="opacity" dur="6.5s" repeatCount="indefinite" calcMode="discrete" keyTimes="0.0000;0.2154;0.3077" values="0;1;0"/></circle><text x="418.0" y="190.0" text-anchor="middle" class="mono" font-size="11" fill="#E88AAA" opacity="0">1 item<animate attributeName="opacity" dur="6.5s" repeatCount="indefinite" calcMode="discrete" keyTimes="0.0000;0.3077;0.9077" values="0;1;0"/></text><path id="e_if_http" d="M572 180 C633.0 180 633.0 110 694 110" fill="none" stroke="#3A2228" stroke-width="2"/><path d="M572 180 C633.0 180 633.0 110 694 110" fill="none" stroke="url(#flow)" stroke-width="2" stroke-dasharray="6 9" class="dash" opacity=".9"/><path d="M685 105 L694 110 L685 115" fill="none" stroke="#6A4A52" stroke-width="2" stroke-linecap="round"/><circle r="5" fill="#F2A7BF" filter="url(#glow)" opacity="0"><animateMotion dur="6.5s" repeatCount="indefinite" calcMode="linear" keyTimes="0.0000;0.3692;0.4615;1.0000" keyPoints="0;0;1;1"><mpath href="#e_if_http"/></animateMotion><animate attributeName="opacity" dur="6.5s" repeatCount="indefinite" calcMode="discrete" keyTimes="0.0000;0.3692;0.4615" values="0;1;0"/></circle><path id="e_if_notify" d="M572 220 C633.0 220 633.0 290 694 290" fill="none" stroke="#3A2228" stroke-width="2"/><path d="M572 220 C633.0 220 633.0 290 694 290" fill="none" stroke="url(#flow)" stroke-width="2" stroke-dasharray="6 9" class="dash" opacity=".9"/><path d="M685 285 L694 290 L685 295" fill="none" stroke="#6A4A52" stroke-width="2" stroke-linecap="round"/><circle r="5" fill="#F2A7BF" filter="url(#glow)" opacity="0"><animateMotion dur="6.5s" repeatCount="indefinite" calcMode="linear" keyTimes="0.0000;0.3692;0.4615;1.0000" keyPoints="0;0;1;1"><mpath href="#e_if_notify"/></animateMotion><animate attributeName="opacity" dur="6.5s" repeatCount="indefinite" calcMode="discrete" keyTimes="0.0000;0.3692;0.4615" values="0;1;0"/></circle><path id="e_http_crm" d="M802 110 C863.0 110 863.0 110 924 110" fill="none" stroke="#3A2228" stroke-width="2"/><path d="M802 110 C863.0 110 863.0 110 924 110" fill="none" stroke="url(#flow)" stroke-width="2" stroke-dasharray="6 9" class="dash" opacity=".9"/><path d="M915 105 L924 110 L915 115" fill="none" stroke="#6A4A52" stroke-width="2" stroke-linecap="round"/><circle r="5" fill="#F2A7BF" filter="url(#glow)" opacity="0"><animateMotion dur="6.5s" repeatCount="indefinite" calcMode="linear" keyTimes="0.0000;0.5231;0.6154;1.0000" keyPoints="0;0;1;1"><mpath href="#e_http_crm"/></animateMotion><animate attributeName="opacity" dur="6.5s" repeatCount="indefinite" calcMode="discrete" keyTimes="0.0000;0.5231;0.6154" values="0;1;0"/></circle><text x="863.0" y="100.0" text-anchor="middle" class="mono" font-size="11" fill="#E88AAA" opacity="0">1 item<animate attributeName="opacity" dur="6.5s" repeatCount="indefinite" calcMode="discrete" keyTimes="0.0000;0.6154;0.9077" values="0;1;0"/></text><path id="e_notify_mail" d="M802 290 C863.0 290 863.0 290 924 290" fill="none" stroke="#3A2228" stroke-width="2"/><path d="M802 290 C863.0 290 863.0 290 924 290" fill="none" stroke="url(#flow)" stroke-width="2" stroke-dasharray="6 9" class="dash" opacity=".9"/><path d="M915 285 L924 290 L915 295" fill="none" stroke="#6A4A52" stroke-width="2" stroke-linecap="round"/><circle r="5" fill="#F2A7BF" filter="url(#glow)" opacity="0"><animateMotion dur="6.5s" repeatCount="indefinite" calcMode="linear" keyTimes="0.0000;0.5231;0.6154;1.0000" keyPoints="0;0;1;1"><mpath href="#e_notify_mail"/></animateMotion><animate attributeName="opacity" dur="6.5s" repeatCount="indefinite" calcMode="discrete" keyTimes="0.0000;0.5231;0.6154" values="0;1;0"/></circle><text x="863.0" y="280.0" text-anchor="middle" class="mono" font-size="11" fill="#E88AAA" opacity="0">1 item<animate attributeName="opacity" dur="6.5s" repeatCount="indefinite" calcMode="discrete" keyTimes="0.0000;0.6154;0.9077" values="0;1;0"/></text><text x="618" y="176" class="mono" font-size="11" fill="#8E7A84">true</text><text x="618" y="238" class="mono" font-size="11" fill="#8E7A84">false</text><path d="M118.0 152.0 H156 a10 10 0 0 1 10 10 V238.0 a10 10 0 0 1 -10 10 H118.0 a48.0 48.0 0 0 1 0 -96 Z" fill="#140A0E" stroke="#3A2228" stroke-width="2"><animate attributeName="stroke" dur="6.5s" repeatCount="indefinite" calcMode="discrete" keyTimes="0.0000;0.0000;0.0615;0.9077" values="#3A2228;#C21F3A;#E88AAA;#3A2228"/></path><path d="M118.0 152.0 H156 a10 10 0 0 1 10 10 V238.0 a10 10 0 0 1 -10 10 H118.0 a48.0 48.0 0 0 1 0 -96 Z" fill="none" stroke="#C21F3A" stroke-width="8" opacity="0" filter="url(#soft)"><animate attributeName="opacity" dur="6.5s" repeatCount="indefinite" calcMode="discrete" keyTimes="0.0000;0.0000;0.0615" values="0;.45;0"/></path><g transform="translate(118.0 200)"><path d="M3 -13 L-7 3 H0 L-3 13 L7 -3 H0 Z" fill="#F2A7BF"/></g><circle cx="167" cy="200" r="4" fill="#6A4A52"/><g opacity="0" transform="translate(162 156.0)"><circle r="10" fill="#E88AAA"/><path d="M-4.5 0 L-1 3.5 L5 -3.5" stroke="#07070C" stroke-width="2.4" fill="none" stroke-linecap="round" stroke-linejoin="round"/><animate attributeName="opacity" dur="6.5s" repeatCount="indefinite" calcMode="discrete" keyTimes="0.0000;0.0615;0.9077" values="0;1;0"/></g><text x="118.0" y="270.0" text-anchor="middle" class="sans" font-size="14" font-weight="600" fill="#EFE6EA">Webhook</text><text x="118.0" y="287.0" text-anchor="middle" class="mono" font-size="11" fill="#8E7A84">POST /lead</text><rect x="270" y="152.0" width="96" height="96" rx="12" fill="#140A0E" stroke="#3A2228" stroke-width="2"><animate attributeName="stroke" dur="6.5s" repeatCount="indefinite" calcMode="discrete" keyTimes="0.0000;0.1538;0.2154;0.9077" values="#3A2228;#C21F3A;#E88AAA;#3A2228"/></rect><rect x="270" y="152.0" width="96" height="96" rx="12" fill="none" stroke="#C21F3A" stroke-width="8" opacity="0" filter="url(#soft)"><animate attributeName="opacity" dur="6.5s" repeatCount="indefinite" calcMode="discrete" keyTimes="0.0000;0.1538;0.2154" values="0;.45;0"/></rect><g transform="translate(318.0 200)"><text x="0" y="8" text-anchor="middle" class="mono" font-size="24" font-weight="600" fill="#F5D547">{ }</text></g><circle cx="269" cy="200" r="4" fill="#140A0E" stroke="#6A4A52" stroke-width="2"/><circle cx="367" cy="200" r="4" fill="#6A4A52"/><g opacity="0" transform="translate(362 156.0)"><circle r="10" fill="#E88AAA"/><path d="M-4.5 0 L-1 3.5 L5 -3.5" stroke="#07070C" stroke-width="2.4" fill="none" stroke-linecap="round" stroke-linejoin="round"/><animate attributeName="opacity" dur="6.5s" repeatCount="indefinite" calcMode="discrete" keyTimes="0.0000;0.2154;0.9077" values="0;1;0"/></g><text x="318.0" y="270.0" text-anchor="middle" class="sans" font-size="14" font-weight="600" fill="#EFE6EA">Normalize</text><text x="318.0" y="287.0" text-anchor="middle" class="mono" font-size="11" fill="#8E7A84">Code</text><rect x="470" y="152.0" width="96" height="96" rx="12" fill="#140A0E" stroke="#3A2228" stroke-width="2"><animate attributeName="stroke" dur="6.5s" repeatCount="indefinite" calcMode="discrete" keyTimes="0.0000;0.3077;0.3692;0.9077" values="#3A2228;#C21F3A;#E88AAA;#3A2228"/></rect><rect x="470" y="152.0" width="96" height="96" rx="12" fill="none" stroke="#C21F3A" stroke-width="8" opacity="0" filter="url(#soft)"><animate attributeName="opacity" dur="6.5s" repeatCount="indefinite" calcMode="discrete" keyTimes="0.0000;0.3077;0.3692" values="0;.45;0"/></rect><g transform="translate(518.0 200)"><path d="M-12 0 H-3 M-3 0 L8 -10 M-3 0 L8 10 M4 -12 L9 -10 L7 -5 M4 12 L9 10 L7 5" stroke="#E88AAA" stroke-width="2.6" fill="none" stroke-linecap="round" stroke-linejoin="round"/></g><circle cx="469" cy="200" r="4" fill="#140A0E" stroke="#6A4A52" stroke-width="2"/><circle cx="567" cy="180" r="4" fill="#6A4A52"/><circle cx="567" cy="220" r="4" fill="#6A4A52"/><g opacity="0" transform="translate(562 156.0)"><circle r="10" fill="#E88AAA"/><path d="M-4.5 0 L-1 3.5 L5 -3.5" stroke="#07070C" stroke-width="2.4" fill="none" stroke-linecap="round" stroke-linejoin="round"/><animate attributeName="opacity" dur="6.5s" repeatCount="indefinite" calcMode="discrete" keyTimes="0.0000;0.3692;0.9077" values="0;1;0"/></g><text x="518.0" y="270.0" text-anchor="middle" class="sans" font-size="14" font-weight="600" fill="#EFE6EA">Qualified?</text><text x="518.0" y="287.0" text-anchor="middle" class="mono" font-size="11" fill="#8E7A84">If</text><rect x="700" y="62.0" width="96" height="96" rx="12" fill="#140A0E" stroke="#3A2228" stroke-width="2"><animate attributeName="stroke" dur="6.5s" repeatCount="indefinite" calcMode="discrete" keyTimes="0.0000;0.4615;0.5231;0.9077" values="#3A2228;#C21F3A;#E88AAA;#3A2228"/></rect><rect x="700" y="62.0" width="96" height="96" rx="12" fill="none" stroke="#C21F3A" stroke-width="8" opacity="0" filter="url(#soft)"><animate attributeName="opacity" dur="6.5s" repeatCount="indefinite" calcMode="discrete" keyTimes="0.0000;0.4615;0.5231" values="0;.45;0"/></rect><g transform="translate(748.0 110)"><g stroke="#F2A7BF" stroke-width="2.2" fill="none"><circle r="12"/><ellipse rx="5" ry="12"/><path d="M-12 0 H12"/></g></g><circle cx="699" cy="110" r="4" fill="#140A0E" stroke="#6A4A52" stroke-width="2"/><circle cx="797" cy="110" r="4" fill="#6A4A52"/><g opacity="0" transform="translate(792 66.0)"><circle r="10" fill="#E88AAA"/><path d="M-4.5 0 L-1 3.5 L5 -3.5" stroke="#07070C" stroke-width="2.4" fill="none" stroke-linecap="round" stroke-linejoin="round"/><animate attributeName="opacity" dur="6.5s" repeatCount="indefinite" calcMode="discrete" keyTimes="0.0000;0.5231;0.9077" values="0;1;0"/></g><text x="748.0" y="180.0" text-anchor="middle" class="sans" font-size="14" font-weight="600" fill="#EFE6EA">Enrich lead</text><text x="748.0" y="197.0" text-anchor="middle" class="mono" font-size="11" fill="#8E7A84">HTTP Request</text><rect x="700" y="242.0" width="96" height="96" rx="12" fill="#140A0E" stroke="#3A2228" stroke-width="2"><animate attributeName="stroke" dur="6.5s" repeatCount="indefinite" calcMode="discrete" keyTimes="0.0000;0.4615;0.5231;0.9077" values="#3A2228;#C21F3A;#E88AAA;#3A2228"/></rect><rect x="700" y="242.0" width="96" height="96" rx="12" fill="none" stroke="#C21F3A" stroke-width="8" opacity="0" filter="url(#soft)"><animate attributeName="opacity" dur="6.5s" repeatCount="indefinite" calcMode="discrete" keyTimes="0.0000;0.4615;0.5231" values="0;.45;0"/></rect><g transform="translate(748.0 290)"><path d="M-12 -9 h24 a3 3 0 0 1 3 3 v12 a3 3 0 0 1 -3 3 h-14 l-7 6 v-6 h-3 a3 3 0 0 1 -3 -3 v-12 a3 3 0 0 1 3 -3z" fill="none" stroke="#F7C6D5" stroke-width="2.2" stroke-linejoin="round"/></g><circle cx="699" cy="290" r="4" fill="#140A0E" stroke="#6A4A52" stroke-width="2"/><circle cx="797" cy="290" r="4" fill="#6A4A52"/><g opacity="0" transform="translate(792 246.0)"><circle r="10" fill="#E88AAA"/><path d="M-4.5 0 L-1 3.5 L5 -3.5" stroke="#07070C" stroke-width="2.4" fill="none" stroke-linecap="round" stroke-linejoin="round"/><animate attributeName="opacity" dur="6.5s" repeatCount="indefinite" calcMode="discrete" keyTimes="0.0000;0.5231;0.9077" values="0;1;0"/></g><text x="748.0" y="360.0" text-anchor="middle" class="sans" font-size="14" font-weight="600" fill="#EFE6EA">Notify team</text><text x="748.0" y="377.0" text-anchor="middle" class="mono" font-size="11" fill="#8E7A84">Slack</text><rect x="930" y="62.0" width="96" height="96" rx="12" fill="#140A0E" stroke="#3A2228" stroke-width="2"><animate attributeName="stroke" dur="6.5s" repeatCount="indefinite" calcMode="discrete" keyTimes="0.0000;0.6154;0.6769;0.9077" values="#3A2228;#C21F3A;#E88AAA;#3A2228"/></rect><rect x="930" y="62.0" width="96" height="96" rx="12" fill="none" stroke="#C21F3A" stroke-width="8" opacity="0" filter="url(#soft)"><animate attributeName="opacity" dur="6.5s" repeatCount="indefinite" calcMode="discrete" keyTimes="0.0000;0.6154;0.6769" values="0;.45;0"/></rect><g transform="translate(978.0 110)"><g fill="none" stroke="#C21F3A" stroke-width="2.2"><circle cy="-5" r="5"/><path d="M-10 11 a10 8 0 0 1 20 0"/></g></g><circle cx="929" cy="110" r="4" fill="#140A0E" stroke="#6A4A52" stroke-width="2"/><g opacity="0" transform="translate(1022 66.0)"><circle r="10" fill="#E88AAA"/><path d="M-4.5 0 L-1 3.5 L5 -3.5" stroke="#07070C" stroke-width="2.4" fill="none" stroke-linecap="round" stroke-linejoin="round"/><animate attributeName="opacity" dur="6.5s" repeatCount="indefinite" calcMode="discrete" keyTimes="0.0000;0.6769;0.9077" values="0;1;0"/></g><text x="978.0" y="180.0" text-anchor="middle" class="sans" font-size="14" font-weight="600" fill="#EFE6EA">Upsert contact</text><text x="978.0" y="197.0" text-anchor="middle" class="mono" font-size="11" fill="#8E7A84">CRM · GoHighLevel</text><rect x="930" y="242.0" width="96" height="96" rx="12" fill="#140A0E" stroke="#3A2228" stroke-width="2"><animate attributeName="stroke" dur="6.5s" repeatCount="indefinite" calcMode="discrete" keyTimes="0.0000;0.6154;0.6769;0.9077" values="#3A2228;#C21F3A;#E88AAA;#3A2228"/></rect><rect x="930" y="242.0" width="96" height="96" rx="12" fill="none" stroke="#C21F3A" stroke-width="8" opacity="0" filter="url(#soft)"><animate attributeName="opacity" dur="6.5s" repeatCount="indefinite" calcMode="discrete" keyTimes="0.0000;0.6154;0.6769" values="0;.45;0"/></rect><g transform="translate(978.0 290)"><g fill="none" stroke="#F2A7BF" stroke-width="2.2" stroke-linejoin="round"><rect x="-12" y="-9" width="24" height="18" rx="3"/><path d="M-12 -7 L0 2 L12 -7"/></g></g><circle cx="929" cy="290" r="4" fill="#140A0E" stroke="#6A4A52" stroke-width="2"/><g opacity="0" transform="translate(1022 246.0)"><circle r="10" fill="#E88AAA"/><path d="M-4.5 0 L-1 3.5 L5 -3.5" stroke="#07070C" stroke-width="2.4" fill="none" stroke-linecap="round" stroke-linejoin="round"/><animate attributeName="opacity" dur="6.5s" repeatCount="indefinite" calcMode="discrete" keyTimes="0.0000;0.6769;0.9077" values="0;1;0"/></g><text x="978.0" y="360.0" text-anchor="middle" class="sans" font-size="14" font-weight="600" fill="#EFE6EA">Nurture email</text><text x="978.0" y="377.0" text-anchor="middle" class="mono" font-size="11" fill="#8E7A84">Send Email</text></g>
  <text x="24" y="440" class="mono" font-size="11" fill="#6A4A52">example flow · webhook triggers · API integrations · CRM sync · scheduled jobs · error handling</text>
  <circle cx="1036" cy="436" r="4" fill="#E88AAA"/><text x="1176" y="440" text-anchor="end" class="mono" font-size="11" fill="#E88AAA">execution succeeded</text>
</g>
<rect x=".5" y=".5" width="1199" height="459" rx="22" fill="none" stroke="#C21F3A" stroke-opacity=".3"/>
</svg>